# xmcd
#
# Track frame offsets:
#	150
#	14146
#	33581
#	53214
#	71042
#	92303
#	106640
#	126333
#	146459
#	162267
#
# Disc length: 2385 seconds
#
# Revision: 0
# Processed by: cddbd v1.4PL0 Copyright (c) Steve Scherf et al.
# Submitted via: dBpowerAMP V4.0
#
DISCID=84094f0a
DTITLE=Rodger Wilko - When We Get There
DYEAR=2001
DGENRE=Country
TTITLE0=Where I Want to Be
TTITLE1=Gorgeous
TTITLE2=When We Get There
TTITLE3=Bad Kiss
TTITLE4=Overtime
TTITLE5=Crosseyed Girl
TTITLE6=Summertime
TTITLE7=Abilene
TTITLE8=Never Again
TTITLE9=Since I Went Away
EXTD=
EXTT0=
EXTT1=
EXTT2=
EXTT3=
EXTT4=
EXTT5=
EXTT6=
EXTT7=
EXTT8=
EXTT9=
PLAYORDER=
